<svg id="Group_22" data-name="Group 22" xmlns="http://www.w3.org/2000/svg" width="28.338" height="16.389" viewBox="0 0 28.338 16.389">
  <g id="Group_21" data-name="Group 21" transform="translate(0)">
    <path id="Path_1001" data-name="Path 1001" d="M14.542,37.83l-.864.268a5.571,5.571,0,0,1-1.7.238,6.32,6.32,0,0,1-1.7-.238l-.894-.268c-.03,0-.03,0-.06-.03A2.878,2.878,0,0,0,9,39.141a2.95,2.95,0,1,0,5.9,0,2.78,2.78,0,0,0-.358-1.311Z" transform="translate(-7.063 -33.241)" fill="#3cbfae"/>
    <path id="Path_1002" data-name="Path 1002" d="M4.779,24.179l1.341.387v1.222a.546.546,0,0,0,.387.536l.894.268a4.979,4.979,0,0,0,2.95,0l.864-.268a.546.546,0,0,0,.387-.536V24.567l.8-.238V25.55h-.03a.128.128,0,0,0-.119.119v.566a.128.128,0,0,0,.119.119h.03l-.179.358a.109.109,0,0,0,.089.179h.566c.089,0,.149-.089.089-.149l-.179-.358h.03a.128.128,0,0,0,.119-.119V25.7a.128.128,0,0,0-.119-.119h-.06V24.239l.149-.03a.248.248,0,0,0,0-.477L9.4,22.689a1.654,1.654,0,0,0-1.073,0L4.779,23.7A.248.248,0,0,0,4.779,24.179Z" transform="translate(-3.974 -22.57)" fill="#3cbfae"/>
    <path id="Path_1003" data-name="Path 1003" d="M8.966,54.7H5.748A3.256,3.256,0,0,0,2.5,57.948v1.52a.394.394,0,0,0,.387.387h7.9v-.3a4.153,4.153,0,0,1,1.162-2.89A3.209,3.209,0,0,0,8.966,54.7Z" transform="translate(-2.5 -45.105)" fill="#3cbfae"/>
    <path id="Path_1004" data-name="Path 1004" d="M76.872,37.76,75.978,38a5.571,5.571,0,0,1-1.7.238,6.32,6.32,0,0,1-1.7-.238l-.894-.268c-.03,0-.03,0-.06-.03a2.878,2.878,0,0,0-.328,1.341,2.95,2.95,0,1,0,5.9,0,2.729,2.729,0,0,0-.328-1.281Z" transform="translate(-50.799 -33.171)" fill="#3cbfae"/>
    <path id="Path_1005" data-name="Path 1005" d="M67.126,24.109l1.341.387v1.222a.546.546,0,0,0,.387.536l.864.268a4.979,4.979,0,0,0,2.95,0l.864-.268a.546.546,0,0,0,.387-.536V24.5l.8-.238V25.48h-.03a.128.128,0,0,0-.119.119v.566a.128.128,0,0,0,.119.119h.03l-.179.358a.114.114,0,0,0,.089.149H75.2c.089,0,.149-.089.089-.149l-.179-.358h.03a.128.128,0,0,0,.119-.119V25.6a.128.128,0,0,0-.119-.119h-.03V24.139l.149-.03a.248.248,0,0,0,0-.477l-3.546-1.043a1.654,1.654,0,0,0-1.073,0l-3.516,1.043A.242.242,0,0,0,67.126,24.109Z" transform="translate(-47.728 -22.5)" fill="#3cbfae"/>
    <path id="Path_1006" data-name="Path 1006" d="M72,54.7H68.78a3.24,3.24,0,0,0-2.98,1.967,4.153,4.153,0,0,1,1.162,2.89v.328h7.926a.394.394,0,0,0,.387-.387v-1.52A3.307,3.307,0,0,0,72,54.7Z" transform="translate(-46.938 -45.105)" fill="#3cbfae"/>
    <path id="Path_1007" data-name="Path 1007" d="M40.166,60.1H36.948A3.256,3.256,0,0,0,33.7,63.348V64.9a.394.394,0,0,0,.387.387h8.939a.394.394,0,0,0,.387-.387V63.348A3.256,3.256,0,0,0,40.166,60.1Z" transform="translate(-24.403 -48.896)" fill="#3cbfae"/>
    <path id="Path_1008" data-name="Path 1008" d="M45.742,43.23l-.864.268a5.571,5.571,0,0,1-1.7.238,6.32,6.32,0,0,1-1.7-.238l-.894-.268c-.03,0-.03,0-.06-.03a2.878,2.878,0,0,0-.328,1.341,2.95,2.95,0,0,0,5.9,0,3.176,3.176,0,0,0-.358-1.311Z" transform="translate(-28.966 -37.032)" fill="#3cbfae"/>
    <path id="Path_1009" data-name="Path 1009" d="M35.995,29.579l1.341.387v1.222a.546.546,0,0,0,.387.536l.864.268a4.979,4.979,0,0,0,2.95,0l.864-.268a.546.546,0,0,0,.387-.536V29.967l.8-.238V30.98h-.03a.128.128,0,0,0-.119.119v.566a.128.128,0,0,0,.119.119h.06l-.179.358a.114.114,0,0,0,.089.149H44.1c.089,0,.149-.089.089-.149l-.179-.358h.03a.128.128,0,0,0,.119-.119V31.1a.128.128,0,0,0-.119-.119h-.03V29.639l.149-.03a.248.248,0,0,0,0-.477l-3.516-1.043a1.654,1.654,0,0,0-1.073,0l-3.516,1.043A.227.227,0,0,0,35.995,29.579Z" transform="translate(-25.893 -26.361)" fill="#3cbfae"/>
  </g>
</svg>
