<svg xmlns="http://www.w3.org/2000/svg" width="18.799" height="18.182" viewBox="0 0 18.799 18.182">
  <g id="Group_2" data-name="Group 2" transform="translate(-331.5 75)">
    <path id="Path_298" data-name="Path 298" d="M21.137,7.739a.638.638,0,0,0-.514-.237L7.585,7.165l-.4-2.572A.663.663,0,0,0,6.536,4H3.173a.684.684,0,0,0-.673.692.667.667,0,0,0,.673.673h2.77l1.8,11.851A2.438,2.438,0,0,0,8.435,18.6,2.047,2.047,0,0,0,7.8,20.085a2.1,2.1,0,1,0,4.194,0,2.188,2.188,0,0,0-.138-.732h3.719a2.287,2.287,0,0,0-.138.732,2.1,2.1,0,1,0,2.1-2.1h-7.3A1.152,1.152,0,0,1,9.088,17L8.93,15.95h8.448a3.1,3.1,0,0,0,3.067-2.592l.851-5.085A.719.719,0,0,0,21.137,7.739Zm-3.6,11.633a.732.732,0,1,1-.732.732A.73.73,0,0,1,17.536,19.372Zm-7.637,0a.732.732,0,1,1-.732.732A.73.73,0,0,1,9.9,19.372Zm5.9-7.083H14.45v1.345a.673.673,0,1,1-1.345,0V12.29H11.759a.673.673,0,0,1,0-1.345h1.326V9.6a.673.673,0,0,1,1.345,0v1.345h1.345a.667.667,0,0,1,.673.673A.651.651,0,0,1,15.795,12.29Z" transform="translate(329 -79)" fill="#fff"/>
  </g>
</svg>
