<svg xmlns="http://www.w3.org/2000/svg" width="27.162" height="20" viewBox="0 0 27.162 20">
  <g id="Group_158" data-name="Group 158" transform="translate(163.4 -15.094)">
    <path id="Path_2404" data-name="Path 2404" d="M-139.277,32.262h-7.449a.648.648,0,0,1-.659-.659V24.154a.655.655,0,0,0-.688-.659,8.774,8.774,0,0,0-6.3,3.467,5.93,5.93,0,0,0-2.922-.774,6.107,6.107,0,0,0-6.1,6.1,6.126,6.126,0,0,0,6.1,6.1,6.171,6.171,0,0,0,2.98-.8,8.8,8.8,0,0,0,6.847,3.5,8.768,8.768,0,0,0,8.881-8.108A.669.669,0,0,0-139.277,32.262Zm-22.6.029a4.548,4.548,0,0,1,4.555-4.555,4.548,4.548,0,0,1,4.555,4.555,4.548,4.548,0,0,1-4.555,4.555A4.567,4.567,0,0,1-161.882,32.291Z" transform="translate(0 -5.993)" fill="#91a1ae"/>
    <path id="Path_2405" data-name="Path 2405" d="M-98.512,15.1a.655.655,0,0,0-.688.659V23.2a.648.648,0,0,0,.659.659h7.449a.655.655,0,0,0,.659-.688A8.783,8.783,0,0,0-98.512,15.1Z" transform="translate(-45.807)" fill="#91a1ae"/>
    <path id="Path_2406" data-name="Path 2406" d="M-146.6,45.065h-.487a.5.5,0,0,1-.372-.172.451.451,0,0,1-.115-.372.5.5,0,0,1,.516-.43h.544a.279.279,0,0,1,.286.229.251.251,0,0,0,.258.2h.63a.26.26,0,0,0,.2-.086.242.242,0,0,0,.057-.2,1.4,1.4,0,0,0-1.2-1.261v-.516a.257.257,0,0,0-.258-.258h-.63a.257.257,0,0,0-.258.258V43a1.629,1.629,0,0,0-1.289,1.748,1.651,1.651,0,0,0,1.662,1.461h.4a.5.5,0,0,1,.372.172.451.451,0,0,1,.115.372.5.5,0,0,1-.516.43h-.544a.279.279,0,0,1-.286-.229.251.251,0,0,0-.258-.2h-.63a.26.26,0,0,0-.2.086.242.242,0,0,0-.057.2,1.4,1.4,0,0,0,1.2,1.261v.516a.257.257,0,0,0,.258.258h.63a.257.257,0,0,0,.258-.258v-.544a1.677,1.677,0,0,0,1.289-1.4,1.678,1.678,0,0,0-.4-1.261A1.526,1.526,0,0,0-146.6,45.065Z" transform="translate(-10.467 -19.34)" fill="#91a1ae"/>
  </g>
</svg>
