<svg id="Group_857" data-name="Group 857" xmlns="http://www.w3.org/2000/svg" xmlns:xlink="http://www.w3.org/1999/xlink" width="35.454" height="22.398" viewBox="0 0 35.454 22.398">
  <defs>
    <clipPath id="clip-path">
      <rect id="Rectangle_1386" data-name="Rectangle 1386" width="35.454" height="22.398" fill="#91a1ae"/>
    </clipPath>
  </defs>
  <g id="Group_856" data-name="Group 856" clip-path="url(#clip-path)">
    <path id="Path_2676" data-name="Path 2676" d="M17.727,0A11.222,11.222,0,0,0,7.06,7.791H3.119v.974H6.8A11.124,11.124,0,0,0,6.528,11.2,11.255,11.255,0,0,0,6.8,13.634H1.871l1.6-1.613-.7-.685L.335,13.77,0,14.121l.335.335L2.769,16.89l.7-.685-1.6-1.6H7.06a11.2,11.2,0,0,0,21.334,0h3.941v-.974H28.652a11.255,11.255,0,0,0,.274-2.435,11.13,11.13,0,0,0-.274-2.435h4.93l-1.6,1.6.7.685,2.769-2.769-.335-.35L32.684,5.493l-.7.685,1.6,1.613H28.394A11.221,11.221,0,0,0,17.727,0Zm0,.974A10.225,10.225,0,1,1,7.5,11.2,10.218,10.218,0,0,1,17.727.974ZM17.24,2.922V4.428a3.732,3.732,0,0,0-3.408,3.606V8.08a3.508,3.508,0,0,0,1.43,2.556,7.269,7.269,0,0,0,1.978.959v5.417a3.042,3.042,0,0,1-2.45-1.993l-.944.258A3.976,3.976,0,0,0,17.24,18v1.476h.974V17.985a3.747,3.747,0,0,0,3.408-3.622v-.015a3.108,3.108,0,0,0-1.263-2.48,7.635,7.635,0,0,0-2.145-.989V5.4a2.922,2.922,0,0,1,2.45,1.963l.944-.258a3.866,3.866,0,0,0-3.393-2.693V2.922Zm0,2.48v5.143a5.771,5.771,0,0,1-1.4-.7A2.377,2.377,0,0,1,14.805,8,2.746,2.746,0,0,1,17.24,5.4Zm.974,6.528a6.241,6.241,0,0,1,1.567.731,1.975,1.975,0,0,1,.867,1.7c0,.006,0,.01,0,.015a2.759,2.759,0,0,1-2.435,2.633Z" fill="#91a1ae"/>
  </g>
</svg>
