<svg id="Group_873" data-name="Group 873" xmlns="http://www.w3.org/2000/svg" xmlns:xlink="http://www.w3.org/1999/xlink" width="18.172" height="18.269" viewBox="0 0 18.172 18.269">
  <defs>
    <clipPath id="clip-path">
      <rect id="Rectangle_1390" data-name="Rectangle 1390" width="18.172" height="18.269" fill="#91a1ae"/>
    </clipPath>
  </defs>
  <g id="Group_871" data-name="Group 871" clip-path="url(#clip-path)">
    <path id="Path_2680" data-name="Path 2680" d="M18.14,360.522c-.258-.636-1.033-.4-1.639-.308-.268.04-3.7,1.043-4.55,1.3a.21.21,0,0,0-.139.238,1.511,1.511,0,0,1-.586,1.768,3.716,3.716,0,0,1-2.126.467,28.52,28.52,0,0,1-2.99-.288H6.1a.2.2,0,0,1,0-.4c.079-.01.159-.01.238-.02.874.109,1.689.179,2.106.209.437.03,2.9.189,2.9-1.192,0-.685-.5-.556-2.076-.685-1.023-.089-4.669-.318-6.1-.318C1.7,361.3,0,361.754,0,363.383c0,1.609.636,2.205,3.656,2.205.288-.01,3.487,0,5.712,0,2.086,0,6.318-2.672,7.2-3.258.566-.357,1.818-1.182,1.57-1.808Z" transform="translate(0 -347.32)" fill="#91a1ae"/>
    <path id="Path_2681" data-name="Path 2681" d="M32.784.705a2.422,2.422,0,0,0-3.417,0l-.755.755L27.857.705a2.416,2.416,0,0,0-3.417,3.417l3.914,3.914a.374.374,0,0,0,.248.109.339.339,0,0,0,.248-.109l3.944-3.914a2.425,2.425,0,0,0-.01-3.417Z" transform="translate(-22.89)" fill="#91a1ae"/>
    <path id="Path_2682" data-name="Path 2682" d="M202.339,103.909a3.886,3.886,0,0,1,.487-.03,4.306,4.306,0,1,1-4.3,4.311v-.278s2.97-2.931,3.149-3.1a3.208,3.208,0,0,0,.427-.507,3.329,3.329,0,0,0,.238-.4Zm.536,1.838c-.119,0-.179.079-.179.248v.149a1.437,1.437,0,0,0-.924.378,1.139,1.139,0,0,0-.318.824,1.084,1.084,0,0,0,.159.626,1.122,1.122,0,0,0,.427.378,3.522,3.522,0,0,0,.656.238v1.351a.868.868,0,0,1-.318-.159.755.755,0,0,1-.179-.229,3.3,3.3,0,0,1-.139-.368.313.313,0,0,0-.129-.169.4.4,0,0,0-.219-.06.367.367,0,0,0-.268.109.374.374,0,0,0-.109.248,1.082,1.082,0,0,0,.079.388,1.241,1.241,0,0,0,.248.378,1.576,1.576,0,0,0,.427.308,1.749,1.749,0,0,0,.6.159v.1a.35.35,0,0,0,.04.2.174.174,0,0,0,.149.06.144.144,0,0,0,.149-.079.761.761,0,0,0,.03-.248v-.04a1.6,1.6,0,0,0,.715-.219,1.171,1.171,0,0,0,.457-.477,1.329,1.329,0,0,0,.159-.626,1.123,1.123,0,0,0-.1-.487,1.207,1.207,0,0,0-.278-.387,1.268,1.268,0,0,0-.388-.238,4.53,4.53,0,0,0-.576-.179v-1.2a.663.663,0,0,1,.467.487.369.369,0,0,0,.626.2.356.356,0,0,0,.109-.248.675.675,0,0,0-.07-.288,1.473,1.473,0,0,0-.2-.308.991.991,0,0,0-.387-.288,1.934,1.934,0,0,0-.536-.129v-.159q.015-.238-.178-.238Zm-.566,1.868a.443.443,0,0,1-.129-.348.456.456,0,0,1,.139-.358,1.031,1.031,0,0,1,.378-.189v1.113A1.139,1.139,0,0,1,202.309,107.614Zm1.212,1.311a.5.5,0,0,1,.159.387.593.593,0,0,1-.159.417.81.81,0,0,1-.457.238V108.7A1.149,1.149,0,0,1,203.521,108.925Z" transform="translate(-191.481 -100.194)" fill="#91a1ae"/>
  </g>
</svg>
