<svg xmlns="http://www.w3.org/2000/svg" width="20" height="19.728" viewBox="0 0 20 19.728">
  <g id="Group_159" data-name="Group 159" transform="translate(-3 -3)">
    <path id="Path_2407" data-name="Path 2407" d="M4.056,12.638v8.7a.528.528,0,0,1-.528.528H3V12.11h.538A.528.528,0,0,1,4.056,12.638Zm18.9,5.806a.729.729,0,0,0-.908-.486l-2.892.845h-.137a1.683,1.683,0,0,1-1.2.507H10.643a.528.528,0,1,1,0-1.056h7.21a.675.675,0,0,0,.665-.676.7.7,0,0,0-.623-.75l-4.223-.274a.461.461,0,0,1-.306-.116,13.47,13.47,0,0,0-3.357-2.111,8.8,8.8,0,0,0-4.064.127.4.4,0,0,1-.158,0H5.111v6.154h.676a.349.349,0,0,1,.148,0c.074,0,6.461,1.921,7.9,2.111.559.116,3.114-.866,8.73-3.5a.739.739,0,0,0,.433-.771ZM10.389,7.75a4.75,4.75,0,1,1,4.75,4.75A4.751,4.751,0,0,1,10.389,7.75Zm2.924-.876a1.414,1.414,0,0,0,1.4,1.4h.845a.359.359,0,0,1,0,.707H14.285a.528.528,0,0,0,0,1.056h.327v.348a.528.528,0,0,0,1.056,0v-.359a1.4,1.4,0,1,0-.106-2.808h-.845a.359.359,0,0,1,0-.707h1.288a.528.528,0,0,0,0-1.056h-.338V5.111a.528.528,0,1,0-1.056,0V5.47A1.4,1.4,0,0,0,13.314,6.874Z" fill="#3cbfae"/>
  </g>
</svg>
