<svg xmlns="http://www.w3.org/2000/svg" xmlns:xlink="http://www.w3.org/1999/xlink" width="25.13" height="24.036" viewBox="0 0 25.13 24.036">
  <defs>
    <clipPath id="clip-path">
      <rect id="Rectangle_1371" data-name="Rectangle 1371" width="25.13" height="24.036" fill="#91a1ae"/>
    </clipPath>
    <clipPath id="clip-path-2">
      <rect id="Rectangle_1387" data-name="Rectangle 1387" width="5.528" height="9.629" fill="#91a1ae"/>
    </clipPath>
  </defs>
  <g id="Group_167" data-name="Group 167" transform="translate(-1 -1)">
    <g id="Group_166" data-name="Group 166" transform="translate(1 1)" clip-path="url(#clip-path)">
      <path id="Path_2413" data-name="Path 2413" d="M11.331,6.352l.174.262a8.591,8.591,0,0,1,6.381-4.086l.568-.062V3.83L21.4,1.873,18.455,0V1.345l-.469.04a9.661,9.661,0,0,0-7.273,4.367,2,2,0,0,1,.619.6" transform="translate(-6.569 1.176)" fill="#91a1ae"/>
      <path id="Path_2414" data-name="Path 2414" d="M2.529,33.167,2.467,32.6H3.83L1.872,29.654,0,32.6H1.345l.04.469a9.661,9.661,0,0,0,5.132,7.723,2,2,0,0,1,.716-.9,8.589,8.589,0,0,1-4.7-6.721" transform="translate(1.261 -20.5)" fill="#91a1ae"/>
      <path id="Path_2415" data-name="Path 2415" d="M43.291,55.986l-.245-.368A8.567,8.567,0,0,1,36.6,59.809l-.569.062V58.508l-2.944,1.957,2.944,1.873V60.993l.47-.04a9.658,9.658,0,0,0,7.315-4.43,2.019,2.019,0,0,1-.524-.537" transform="translate(-22.924 -39.478)" fill="#91a1ae"/>
      <path id="Path_2416" data-name="Path 2416" d="M62.775,17.108a9.639,9.639,0,0,0-5.246-7.783,2,2,0,0,1-.682.923,8.57,8.57,0,0,1,4.784,6.761l.062.568H60.33l1.957,2.944,1.872-2.944H62.815Z" transform="translate(-40.291 -5.64)" fill="#91a1ae"/>
      <g id="Group_859" data-name="Group 859" transform="translate(9.999 7.203)">
        <g id="Group_858" data-name="Group 858" clip-path="url(#clip-path-2)">
          <path id="Path_2677" data-name="Path 2677" d="M4.632,5.2A6.036,6.036,0,0,0,3.11,4.629V1.443A2.027,2.027,0,0,1,4.848,2.584l.67-.15A2.691,2.691,0,0,0,3.11.867V0H2.419V.876A2.411,2.411,0,0,0,0,2.974V3A2,2,0,0,0,1.015,4.487a5.705,5.705,0,0,0,1.4.558V8.2A2.1,2.1,0,0,1,.68,7.036l-.67.15A2.762,2.762,0,0,0,2.419,8.771v.858H3.11V8.762A2.418,2.418,0,0,0,5.528,6.656V6.647a1.737,1.737,0,0,0-.9-1.443M2.419,1.443V4.434a4.5,4.5,0,0,1-.993-.407A1.357,1.357,0,0,1,.691,2.956,1.767,1.767,0,0,1,2.419,1.443ZM4.837,6.664A1.771,1.771,0,0,1,3.11,8.2V5.239a4.923,4.923,0,0,1,1.112.425,1.108,1.108,0,0,1,.616.991s0,.006,0,.009" fill="#91a1ae"/>
        </g>
      </g>
    </g>
  </g>
</svg>
