<svg id="Group_865" data-name="Group 865" xmlns="http://www.w3.org/2000/svg" xmlns:xlink="http://www.w3.org/1999/xlink" width="16" height="14.564" viewBox="0 0 16 14.564">
  <defs>
    <clipPath id="clip-path">
      <rect id="Rectangle_1389" data-name="Rectangle 1389" width="16" height="14.564" fill="#697b8a"/>
    </clipPath>
  </defs>
  <g id="Group_864" data-name="Group 864" transform="translate(0 0)" clip-path="url(#clip-path)">
    <path id="Path_2679" data-name="Path 2679" d="M10.709,8.109l-.8-.8a1.8,1.8,0,0,0-.491-2.145,1.942,1.942,0,0,0-2.091-.436l-.8-.8a2.2,2.2,0,0,1,.691-.291A3.358,3.358,0,0,1,8,3.545a3.073,3.073,0,0,1,3.091,3.091,3.186,3.186,0,0,1-.1.791,2.4,2.4,0,0,1-.282.682m2.345,2.345-.727-.727a8.539,8.539,0,0,0,1.555-1.464,5.841,5.841,0,0,0,.973-1.627,7.259,7.259,0,0,0-2.727-3.191A7.139,7.139,0,0,0,8.182,2.273a8.722,8.722,0,0,0-1.564.145,5.794,5.794,0,0,0-1.255.345l-.836-.855A8.252,8.252,0,0,1,6.155,1.4a8.993,8.993,0,0,1,1.936-.218,8.207,8.207,0,0,1,4.755,1.482A8.591,8.591,0,0,1,16,6.636a8.987,8.987,0,0,1-1.218,2.127,8.778,8.778,0,0,1-1.727,1.691m1.055,4.109-3.055-3a7.056,7.056,0,0,1-1.436.391A9.614,9.614,0,0,1,8,12.091a8.335,8.335,0,0,1-4.818-1.482A8.685,8.685,0,0,1,0,6.636,8.263,8.263,0,0,1,1.009,4.791,10.33,10.33,0,0,1,2.582,3.073L.291.782,1.055,0,14.818,13.764ZM3.327,3.836a6.691,6.691,0,0,0-1.3,1.291,5.987,5.987,0,0,0-.9,1.509A7.28,7.28,0,0,0,3.918,9.827,7.77,7.77,0,0,0,8.145,11a9.544,9.544,0,0,0,1.182-.073,2.815,2.815,0,0,0,.873-.218L9.036,9.545a1.9,1.9,0,0,1-.491.136A3.556,3.556,0,0,1,8,9.727a3.007,3.007,0,0,1-2.182-.891,2.958,2.958,0,0,1-.909-2.2,3.326,3.326,0,0,1,.045-.545A2.213,2.213,0,0,1,5.091,5.6Z" transform="translate(0 0)" fill="#697b8a"/>
  </g>
</svg>
