<svg xmlns="http://www.w3.org/2000/svg" width="20" height="20" viewBox="0 0 20 20">
  <path id="Path_2308" data-name="Path 2308" d="M21.692,14.385,12.526,6.2a.78.78,0,0,0-1.054,0L2.305,14.385a.967.967,0,0,0-.119,1.28.787.787,0,0,0,1.173.13L4.5,14.776v8.5A2.621,2.621,0,0,0,7,26H17a2.621,2.621,0,0,0,2.5-2.727v-8.5l1.14,1.018a.787.787,0,0,0,1.173-.13A.967.967,0,0,0,21.692,14.385Zm-11.36,9.8V19.635a.874.874,0,0,1,.833-.909h1.667a.874.874,0,0,1,.833.909v4.545Zm7.5-.909a.874.874,0,0,1-.833.909H15.332V19.635a2.621,2.621,0,0,0-2.5-2.727H11.165a2.621,2.621,0,0,0-2.5,2.727v4.545H7a.874.874,0,0,1-.833-.909V13.29L12,8.083l5.833,5.207Z" transform="translate(-1.999 -5.999)" fill="#fff"/>
</svg>
