<svg xmlns="http://www.w3.org/2000/svg" width="16" height="16" viewBox="0 0 16 16">
  <path id="Path_1165" data-name="Path 1165" d="M4.968,4.968a8,8,0,1,0,11.314,0A8,8,0,0,0,4.968,4.968Zm5.978,1.013a1.233,1.233,0,0,1,0,2.465A1.243,1.243,0,0,1,9.713,7.2,1.225,1.225,0,0,1,10.946,5.981Zm1.739,8.258a.808.808,0,0,1-.169.287,2.2,2.2,0,0,1-1.621.726A5.305,5.305,0,0,1,10,15.2a1.306,1.306,0,0,1-1.03-1.317l.2-1.317c.135-.76.27-1.537.405-2.3,0-.051.017-.1.017-.152,0-.321-.1-.439-.422-.473a3.381,3.381,0,0,1-.405-.068.3.3,0,0,1-.22-.3c.017-.135.1-.22.27-.253A1.545,1.545,0,0,1,9.105,9h2.33c.287,0,.456.135.456.422a3.39,3.39,0,0,1-.084.709c-.152.878-.321,1.739-.473,2.617-.051.287-.118.574-.152.861a1.193,1.193,0,0,0,.034.422.335.335,0,0,0,.372.27,1.56,1.56,0,0,0,.456-.135A3.149,3.149,0,0,1,12.381,14C12.584,13.935,12.736,14.053,12.685,14.239Z" transform="translate(-2.625 -2.625)" fill="#51606d"/>
</svg>
