<svg xmlns="http://www.w3.org/2000/svg" width="20" height="20" viewBox="0 0 20 20">
  <g id="Group_27" data-name="Group 27" transform="translate(0.045 0)">
    <path id="Path_1013" data-name="Path 1013" d="M9.959,0a10,10,0,0,1,10,10v.012A10,10,0,1,1,9.959,0Zm2.333,8.022H7.635a11.883,11.883,0,0,0,0,3.96H12.29A12.316,12.316,0,0,0,12.292,8.022Zm-6.7,0A1.219,1.219,0,0,0,5.464,8H2.4a.2.2,0,0,0-.217.181c0,.006,0,.013,0,.019a7.959,7.959,0,0,0-.016,3.58.234.234,0,0,0,.241.227A.237.237,0,0,0,2.453,12h2.9a1.474,1.474,0,0,0,.24-.014A15.072,15.072,0,0,1,5.589,8.022Zm8.734,0a14.533,14.533,0,0,1,0,3.956,1.051,1.051,0,0,0,.132.02H17.52a.2.2,0,0,0,.217-.181c0-.006,0-.013,0-.019a7.894,7.894,0,0,0,0-3.6.224.224,0,0,0-.242-.2l-.03,0H14.541c-.064,0-.132.016-.218.022ZM8.066,5.976h3.8A13.706,13.706,0,0,0,9.959,2.048,13.77,13.77,0,0,0,8.066,5.976Zm0,8.038a13.971,13.971,0,0,0,1.893,3.94,14,14,0,0,0,1.893-3.938h-3.8ZM16.85,6c-.734-1.472-3.139-3.432-4.26-3.49A16.724,16.724,0,0,1,13.9,5.854a.274.274,0,0,0,.212.14c.6.012,1.2,0,1.8,0h.938ZM7.307,2.462a8.037,8.037,0,0,0-4.236,3.5.27.27,0,0,0,.068.034H5.851a.264.264,0,0,0,.172-.162c.168-.494.3-1,.486-1.484C6.745,3.728,7.021,3.128,7.307,2.462ZM3.075,14c.61,1.372,3.139,3.446,4.238,3.484-.038-.076-.074-.144-.1-.214-.352-.87-.7-1.758-1.05-2.64-.076-.2-.072-.478-.2-.576S5.539,14,5.324,14Zm9.5,3.548a8.107,8.107,0,0,0,4.288-3.524,1.339,1.339,0,0,0-.144-.02H14.1a.2.2,0,0,0-.214.185h0q-.444,1.266-.91,2.522C12.872,16.982,12.724,17.238,12.574,17.548Z" transform="translate(0 0)" fill="#fff"/>
  </g>
</svg>
