<svg xmlns="http://www.w3.org/2000/svg" xmlns:xlink="http://www.w3.org/1999/xlink" width="30.364" height="18.65" viewBox="0 0 30.364 18.65">
  <defs>
    <clipPath id="clip-path">
      <rect id="Rectangle_1369" data-name="Rectangle 1369" width="30.364" height="18.65" fill="#91a1ae"/>
    </clipPath>
  </defs>
  <g id="Group_163" data-name="Group 163" transform="translate(0 -0.001)">
    <g id="Group_162" data-name="Group 162" transform="translate(0 0)" clip-path="url(#clip-path)">
      <path id="Path_2408" data-name="Path 2408" d="M28.2.05a9.3,9.3,0,1,0,9.3,9.3A9.289,9.289,0,0,0,28.2.05m0,16.429a7.128,7.128,0,1,1,7.128-7.128A7.134,7.134,0,0,1,28.2,16.479" transform="translate(-12.859 -0.034)" fill="#91a1ae"/>
      <path id="Path_2409" data-name="Path 2409" d="M85.59.048a5.329,5.329,0,0,0-3.132,4.666L82.3,9.029a1.345,1.345,0,0,0,1.342,1.406h.543l-.991,6.36a1.609,1.609,0,0,0,1.566,1.854,1.583,1.583,0,0,0,1.6-1.6V.559A.547.547,0,0,0,85.59.048" transform="translate(-55.992 0)" fill="#91a1ae"/>
      <path id="Path_2410" data-name="Path 2410" d="M4.73.05a.573.573,0,0,0-.575.575V4.94a.286.286,0,0,1-.288.288H3.516a.286.286,0,0,1-.288-.288V.625a.575.575,0,1,0-1.151,0V4.94a.286.286,0,0,1-.288.288H1.438a.286.286,0,0,1-.288-.288V.625A.575.575,0,1,0,0,.625v5.05A1.351,1.351,0,0,0,1.342,7.018H1.63l-.607,9.94a1.587,1.587,0,0,0,1.6,1.694h.032a1.587,1.587,0,0,0,1.6-1.694L3.676,6.986h.288A1.351,1.351,0,0,0,5.306,5.643V.625A.573.573,0,0,0,4.73.05" transform="translate(0 -0.034)" fill="#91a1ae"/>
      <path id="Path_2411" data-name="Path 2411" d="M43.4,17.587a1.1,1.1,0,0,0-1.534,0l-1.95,1.95-1.95-1.95a1.085,1.085,0,0,0-1.534,1.534l1.95,1.95-1.95,1.95a1.1,1.1,0,0,0,0,1.534,1.08,1.08,0,0,0,1.534,0l1.95-1.95,1.95,1.95a1.08,1.08,0,0,0,1.534,0,1.1,1.1,0,0,0,0-1.534l-1.95-1.95,1.95-1.95a1.1,1.1,0,0,0,0-1.534" transform="translate(-24.579 -11.754)" fill="#91a1ae"/>
    </g>
  </g>
</svg>
