<svg id="Group_165" data-name="Group 165" xmlns="http://www.w3.org/2000/svg" xmlns:xlink="http://www.w3.org/1999/xlink" width="21.846" height="24.036" viewBox="0 0 21.846 24.036">
  <defs>
    <clipPath id="clip-path">
      <rect id="Rectangle_1370" data-name="Rectangle 1370" width="21.846" height="24.036" fill="#91a1ae"/>
    </clipPath>
  </defs>
  <g id="Group_164" data-name="Group 164" clip-path="url(#clip-path)">
    <path id="Path_2412" data-name="Path 2412" d="M21.846,3.5V15.409a.8.8,0,0,1-1.6,0V3.5a1.9,1.9,0,0,0-1.9-1.9H3.5A1.9,1.9,0,0,0,1.6,3.5V18.347a1.9,1.9,0,0,0,1.9,1.9H14.047l-.8-.8a.793.793,0,1,1,1.122-1.122l2.163,2.163a.774.774,0,0,1,0,1.122L14.395,23.8a.774.774,0,0,1-1.122,0,.774.774,0,0,1,0-1.122l.8-.8H3.5a3.511,3.511,0,0,1-3.5-3.5V3.5A3.493,3.493,0,0,1,3.5,0H18.347a3.493,3.493,0,0,1,3.5,3.5" fill="#91a1ae"/>
    <g id="Group_157" data-name="Group 157" transform="translate(-0.537 -3.675)">
      <path id="Path_2401" data-name="Path 2401" d="M7.42,11.2H7.276c-.447.014-1.469.893-2.305,7.03a.514.514,0,0,0,.519.576h.547a.349.349,0,0,1,.346.4l-.331,2.68a.721.721,0,0,0,.706.821c.4,0,.72-.317.72-.908V11.258C7.463,11.214,7.448,11.2,7.42,11.2Z" transform="translate(0 -2.407)" fill="#91a1ae"/>
      <path id="Path_2402" data-name="Path 2402" d="M34.728,10.914a.4.4,0,0,0-.317.4v2.723a.4.4,0,0,1-.216.36.36.36,0,0,1-.5-.331V11.318a.419.419,0,0,0-.36-.418h-.086a.41.41,0,0,0-.36.418v2.752a.364.364,0,0,1-.5.331.391.391,0,0,1-.216-.36V11.318a.4.4,0,0,0-.317-.4.377.377,0,0,0-.447.375v2.665c0,.879.2,1.642.821,1.844l.259.086a.357.357,0,0,1,.231.245v.331l-.274,3.89L32.351,21.5a.954.954,0,1,0,1.9,0l-.086-1.153-.288-3.89V16.13a.357.357,0,0,1,.23-.245l.259-.086c.619-.2.821-1.008.821-1.844V11.289A.389.389,0,0,0,34.728,10.914Z" transform="translate(-22.626 -2.15)" fill="#91a1ae"/>
      <path id="Path_2403" data-name="Path 2403" d="M67.7,8.39a2,2,0,0,0-2.118,2.233,3.885,3.885,0,0,0,1.325,3.011.52.52,0,0,1,.216.4V14.3l-.274,3.875-.086,1.153a.954.954,0,1,0,1.9,0l-.086-1.153L68.305,14.3v-.259a.5.5,0,0,1,.216-.4,3.917,3.917,0,0,0,1.311-3.011A2.017,2.017,0,0,0,67.7,8.39Z" transform="translate(-51.882 0)" fill="#91a1ae"/>
    </g>
  </g>
</svg>
