<svg xmlns="http://www.w3.org/2000/svg" width="20" height="18.482" viewBox="0 0 20 18.482">
  <g id="Group_157" data-name="Group 157" transform="translate(-4.966 -8.388)">
    <path id="Path_2401" data-name="Path 2401" d="M8.745,11.2H8.523c-.688.022-2.263,1.375-3.549,10.826a.792.792,0,0,0,.8.887h.843a.538.538,0,0,1,.532.621l-.51,4.126a1.11,1.11,0,0,0,1.087,1.264c.621,0,1.109-.488,1.109-1.4V11.289C8.811,11.222,8.789,11.2,8.745,11.2Z" transform="translate(0 -2.188)" fill="#3cbfae"/>
    <path id="Path_2402" data-name="Path 2402" d="M36.525,10.922a.622.622,0,0,0-.488.621v4.193a.61.61,0,0,1-.333.555.555.555,0,0,1-.776-.51V11.543a.644.644,0,0,0-.555-.643H34.24a.631.631,0,0,0-.555.643V15.78a.56.56,0,0,1-.776.51.6.6,0,0,1-.333-.555V11.543a.622.622,0,0,0-.488-.621.581.581,0,0,0-.688.577v4.1c0,1.353.311,2.529,1.264,2.84l.4.133a.549.549,0,0,1,.355.377v.51L33,25.453l-.133,1.775a1.47,1.47,0,1,0,2.928,0l-.133-1.775-.444-5.99v-.51a.549.549,0,0,1,.355-.377l.4-.133c.954-.311,1.264-1.553,1.264-2.84V11.5A.6.6,0,0,0,36.525,10.922Z" transform="translate(-20.57 -1.954)" fill="#3cbfae"/>
    <path id="Path_2403" data-name="Path 2403" d="M68.845,8.391a3.084,3.084,0,0,0-3.261,3.439,5.982,5.982,0,0,0,2.041,4.636.8.8,0,0,1,.333.621v.4l-.421,5.968L67.4,25.229a1.47,1.47,0,1,0,2.928,0L70.2,23.454l-.421-5.968v-.4a.768.768,0,0,1,.333-.621,6.032,6.032,0,0,0,2.019-4.636A3.106,3.106,0,0,0,68.845,8.391Z" transform="translate(-47.167)" fill="#3cbfae"/>
  </g>
</svg>
