<svg id="Visibility_On" xmlns="http://www.w3.org/2000/svg" xmlns:xlink="http://www.w3.org/1999/xlink" width="16" height="10.909" viewBox="0 0 16 10.909">
  <defs>
    <clipPath id="clip-path">
      <rect id="Rectangle_1388" data-name="Rectangle 1388" width="16" height="10.909" fill="#697b8a"/>
    </clipPath>
  </defs>
  <g id="Group_863" data-name="Group 863" clip-path="url(#clip-path)">
    <path id="Path_2678" data-name="Path 2678" d="M8,8.545a3.073,3.073,0,0,0,3.091-3.091,2.982,2.982,0,0,0-.9-2.191A2.982,2.982,0,0,0,8,2.364a2.982,2.982,0,0,0-2.191.9,2.982,2.982,0,0,0-.9,2.191A3.073,3.073,0,0,0,8,8.545M8,7.491A2.018,2.018,0,0,1,5.964,5.455,2.018,2.018,0,0,1,8,3.418a2.018,2.018,0,0,1,2.036,2.036A2.018,2.018,0,0,1,8,7.491m0,3.418A8.147,8.147,0,0,1,3.2,9.4,9.193,9.193,0,0,1,0,5.455,9.193,9.193,0,0,1,3.2,1.509,8.147,8.147,0,0,1,8,0a8.147,8.147,0,0,1,4.8,1.509A9.193,9.193,0,0,1,16,5.455,9.193,9.193,0,0,1,12.8,9.4,8.147,8.147,0,0,1,8,10.909M8,9.818a7.312,7.312,0,0,0,4.045-1.191,7.73,7.73,0,0,0,2.809-3.173,7.73,7.73,0,0,0-2.809-3.173A7.312,7.312,0,0,0,8,1.091,7.312,7.312,0,0,0,3.955,2.282,7.859,7.859,0,0,0,1.127,5.455,7.859,7.859,0,0,0,3.955,8.627,7.312,7.312,0,0,0,8,9.818" fill="#697b8a"/>
  </g>
</svg>
