<svg id="Group_20" data-name="Group 20" xmlns="http://www.w3.org/2000/svg" width="18" height="17.187" viewBox="0 0 18 17.187">
  <path id="Path_1000" data-name="Path 1000" d="M18.353,9.9H13.379a.866.866,0,0,1-.817-.588L11.028,4.566a.85.85,0,0,0-1.62,0L7.861,9.311a.866.866,0,0,1-.817.588H2.07a.846.846,0,0,0-.5,1.534L5.6,14.356a.843.843,0,0,1,.315.946L4.377,20.047a.845.845,0,0,0,1.3.946L9.71,18.069a.861.861,0,0,1,1,0l4.028,2.924a.846.846,0,0,0,1.3-.946l-1.534-4.73a.843.843,0,0,1,.315-.946l4.028-2.938A.846.846,0,0,0,18.353,9.9Z" transform="translate(-1.211 -3.975)" fill="#3cbfae"/>
</svg>
