<svg xmlns="http://www.w3.org/2000/svg" width="16" height="16" viewBox="0 0 16 16">
  <g id="Group_2" data-name="Group 2" transform="translate(0)">
    <path id="Path_298" data-name="Path 298" d="M18.362,7.291a.536.536,0,0,0-.438-.209l-11.1-.3L6.491,4.522A.572.572,0,0,0,5.935,4H3.073a.593.593,0,0,0-.573.609.578.578,0,0,0,.573.592H5.43L6.962,15.63a2.173,2.173,0,0,0,.589,1.219A1.848,1.848,0,0,0,8.8,20a1.806,1.806,0,0,0,1.785-1.845,1.984,1.984,0,0,0-.118-.644H13.63a2.073,2.073,0,0,0-.118.644A1.786,1.786,0,1,0,15.3,16.309H9.084a.991.991,0,0,1-.977-.871l-.135-.923h7.19a2.668,2.668,0,0,0,2.61-2.281L18.5,7.761A.648.648,0,0,0,18.362,7.291ZM15.3,17.528a.645.645,0,1,1-.623.644A.632.632,0,0,1,15.3,17.528Zm-6.5,0a.645.645,0,1,1-.623.644A.632.632,0,0,1,8.8,17.528Zm5.018-6.233H12.671v1.184a.573.573,0,1,1-1.145,0V11.295H10.381a.592.592,0,0,1,0-1.184h1.128V8.927a.573.573,0,1,1,1.145,0v1.184H13.8a.578.578,0,0,1,.573.592A.564.564,0,0,1,13.816,11.295Z" transform="translate(-2.5 -4)" fill="#3cbfae"/>
  </g>
</svg>
